<svg width="800" height="680" viewBox="0 0 800 680" fill="none" xmlns="http://www.w3.org/2000/svg">
<mask id="mask0_144_50" style="mask-type:alpha" maskUnits="userSpaceOnUse" x="0" y="0" width="800" height="680">
<path d="M466.832 281.487C460.141 281.487 454.717 286.788 454.717 293.327V381.781C454.717 388.32 460.141 393.621 466.832 393.621H733.366C740.057 393.621 745.482 388.32 745.482 381.781V293.327C745.482 286.788 740.057 281.487 733.366 281.487H466.832ZM630.243 0.0314331C667.12 1.7838 693.66 9.07748 710.427 24.5113C727.033 39.7962 735.574 61.9333 737.244 91.2013V175.071C737.244 189.785 725.04 201.712 709.985 201.712C694.93 201.712 682.726 189.785 682.726 175.071L682.77 92.7246C681.877 77.4829 678.253 68.0892 673.049 63.2991C668.007 58.6578 652.667 54.4421 628.919 53.2822L105.891 53.2622C84.3815 54.0775 70.4349 58.1495 63.6679 63.9437C58.4638 68.3996 54.5625 80.645 54.5184 101.802L54.3971 572.59C56.3906 593.172 60.9359 606.869 66.7272 613.726C71.1187 618.926 84.768 624.147 104.834 626.663L629.479 626.669C654.036 627.162 668.528 623.485 673.389 618.555C678.782 613.086 682.726 598.688 682.726 575.101V493.335C682.726 478.621 694.93 466.694 709.985 466.694C725.04 466.694 737.244 478.621 737.244 493.335V575.101C737.244 611.157 729.876 638.053 712.645 655.528C694.882 673.543 666.641 680.708 628.919 679.945L101.62 679.759C65.7327 675.594 39.9624 665.737 24.6823 647.645C10.8019 631.211 3.05022 607.851 0 575.101V101.747C0.0729479 66.7213 8.46867 40.369 27.7416 23.8667C45.4516 8.70272 70.9247 1.26531 104.834 0L630.243 0.0314331ZM733.366 228.205C770.167 228.205 800 257.361 800 293.327V381.781C800 417.747 770.167 446.904 733.366 446.904H466.832C430.031 446.904 400.199 417.747 400.199 381.781V293.327C400.199 257.361 430.031 228.205 466.832 228.205H733.366ZM533.466 305.777C515.065 305.777 500.149 320.166 500.149 337.915C500.149 355.665 515.065 370.054 533.466 370.054C551.866 370.054 566.782 355.665 566.782 337.915C566.782 320.166 551.866 305.777 533.466 305.777Z" fill="#555555"/>
</mask>
<g mask="url(#mask0_144_50)">
<path d="M466.832 281.487C460.141 281.487 454.717 286.788 454.717 293.327V381.781C454.717 388.32 460.141 393.621 466.832 393.621H733.366C740.057 393.621 745.482 388.32 745.482 381.781V293.327C745.482 286.788 740.057 281.487 733.366 281.487H466.832ZM630.243 0.0314331C667.12 1.7838 693.66 9.07748 710.427 24.5113C727.033 39.7962 735.574 61.9333 737.244 91.2013V175.071C737.244 189.785 725.04 201.712 709.985 201.712C694.93 201.712 682.726 189.785 682.726 175.071L682.77 92.7246C681.877 77.4829 678.253 68.0892 673.049 63.2991C668.007 58.6578 652.667 54.4421 628.919 53.2822L105.891 53.2622C84.3815 54.0775 70.4349 58.1495 63.6679 63.9437C58.4638 68.3996 54.5625 80.645 54.5184 101.802L54.3971 572.59C56.3906 593.172 60.9359 606.869 66.7272 613.726C71.1187 618.926 84.768 624.147 104.834 626.663L629.479 626.669C654.036 627.162 668.528 623.485 673.389 618.555C678.782 613.086 682.726 598.688 682.726 575.101V493.335C682.726 478.621 694.93 466.694 709.985 466.694C725.04 466.694 737.244 478.621 737.244 493.335V575.101C737.244 611.157 729.876 638.053 712.645 655.528C694.882 673.543 666.641 680.708 628.919 679.945L101.62 679.759C65.7327 675.594 39.9624 665.737 24.6823 647.645C10.8019 631.211 3.05022 607.851 0 575.101V101.747C0.0729479 66.7213 8.46867 40.369 27.7416 23.8667C45.4516 8.70272 70.9247 1.26531 104.834 0L630.243 0.0314331ZM733.366 228.205C770.167 228.205 800 257.361 800 293.327V381.781C800 417.747 770.167 446.904 733.366 446.904H466.832C430.031 446.904 400.199 417.747 400.199 381.781V293.327C400.199 257.361 430.031 228.205 466.832 228.205H733.366ZM533.466 305.777C515.065 305.777 500.149 320.166 500.149 337.915C500.149 355.665 515.065 370.054 533.466 370.054C551.866 370.054 566.782 355.665 566.782 337.915C566.782 320.166 551.866 305.777 533.466 305.777Z" fill="#F9BF18"/>
</g>
</svg>
