<svg width="651" height="617" viewBox="0 0 651 617" fill="none" xmlns="http://www.w3.org/2000/svg">
<mask id="mask0_144_47" style="mask-type:alpha" maskUnits="userSpaceOnUse" x="0" y="0" width="651" height="617">
<path fill-rule="evenodd" clip-rule="evenodd" d="M82.7559 26.4496C123.334 -13.8976 190.146 -6.71571 224.123 38.6703L266.157 94.8169C293.803 131.747 291.363 183.36 258.547 215.991L250.587 223.905C250.24 224.914 249.397 228.088 250.333 234.12C252.44 247.703 263.783 276.516 311.4 323.863C359 371.193 388.017 382.526 401.793 384.64C408.037 385.596 411.303 384.703 412.313 384.35L425.913 370.826C455.087 341.82 499.917 336.396 536.037 356.033L599.72 390.653C654.25 420.296 668.03 494.42 623.35 538.843L576 585.926C561.08 600.76 541.017 613.13 516.53 615.413C456.23 621.036 315.623 613.863 167.886 466.963C29.9559 329.816 3.48724 210.216 0.138243 151.289C-1.55509 121.492 12.5253 96.2816 30.4359 78.4726L82.7559 26.4496ZM184.097 68.6349C167.209 46.0769 135.733 44.2833 118.011 61.9056L65.6906 113.929C54.6932 124.864 49.4019 136.915 50.0576 148.452C52.7186 195.272 74.0952 303.193 203.141 431.506C338.523 566.12 463.563 570.136 511.89 565.63C521.763 564.71 531.583 559.58 540.747 550.47L588.097 503.386C607.347 484.25 603.1 449.4 575.84 434.58L512.157 399.963C494.57 390.403 473.967 393.556 461.167 406.283L445.987 421.38L428.36 403.65C445.987 421.38 445.963 421.403 445.94 421.426L445.89 421.473L445.787 421.573L445.57 421.783L445.083 422.236C444.733 422.556 444.33 422.906 443.88 423.283C442.973 424.033 441.86 424.88 440.53 425.773C437.86 427.56 434.337 429.506 429.907 431.153C420.88 434.516 408.973 436.323 394.213 434.06C365.32 429.63 327.047 409.93 276.147 359.32C225.263 308.726 205.398 270.628 200.923 241.785C198.635 227.037 200.46 215.127 203.865 206.091C205.533 201.663 207.499 198.142 209.303 195.479C210.203 194.151 211.06 193.041 211.815 192.139C212.193 191.688 212.547 191.289 212.868 190.94L213.326 190.454L213.535 190.238L213.635 190.137L213.684 190.089C213.707 190.065 213.731 190.041 231.36 207.769L213.731 190.041L223.292 180.535C237.58 166.329 239.58 142.748 226.13 124.782L184.097 68.6349Z" fill="#1C274C"/>
</mask>
<g mask="url(#mask0_144_47)">
<path fill-rule="evenodd" clip-rule="evenodd" d="M82.7559 26.4496C123.334 -13.8976 190.146 -6.71571 224.123 38.6703L266.157 94.8169C293.803 131.747 291.363 183.36 258.547 215.991L250.587 223.905C250.24 224.914 249.397 228.088 250.333 234.12C252.44 247.703 263.783 276.516 311.4 323.863C359 371.193 388.017 382.526 401.793 384.64C408.037 385.596 411.303 384.703 412.313 384.35L425.913 370.826C455.087 341.82 499.917 336.396 536.037 356.033L599.72 390.653C654.25 420.296 668.03 494.42 623.35 538.843L576 585.926C561.08 600.76 541.017 613.13 516.53 615.413C456.23 621.036 315.623 613.863 167.886 466.963C29.9559 329.816 3.48724 210.216 0.138243 151.289C-1.55509 121.492 12.5253 96.2816 30.4359 78.4726L82.7559 26.4496ZM184.097 68.6349C167.209 46.0769 135.733 44.2833 118.011 61.9056L65.6906 113.929C54.6932 124.864 49.4019 136.915 50.0576 148.452C52.7186 195.272 74.0952 303.193 203.141 431.506C338.523 566.12 463.563 570.136 511.89 565.63C521.763 564.71 531.583 559.58 540.747 550.47L588.097 503.386C607.347 484.25 603.1 449.4 575.84 434.58L512.157 399.963C494.57 390.403 473.967 393.556 461.167 406.283L445.987 421.38L428.36 403.65C445.987 421.38 445.963 421.403 445.94 421.426L445.89 421.473L445.787 421.573L445.57 421.783L445.083 422.236C444.733 422.556 444.33 422.906 443.88 423.283C442.973 424.033 441.86 424.88 440.53 425.773C437.86 427.56 434.337 429.506 429.907 431.153C420.88 434.516 408.973 436.323 394.213 434.06C365.32 429.63 327.047 409.93 276.147 359.32C225.263 308.726 205.398 270.628 200.923 241.785C198.635 227.037 200.46 215.127 203.865 206.091C205.533 201.663 207.499 198.142 209.303 195.479C210.203 194.151 211.06 193.041 211.815 192.139C212.193 191.688 212.547 191.289 212.868 190.94L213.326 190.454L213.535 190.238L213.635 190.137L213.684 190.089C213.707 190.065 213.731 190.041 231.36 207.769L213.731 190.041L223.292 180.535C237.58 166.329 239.58 142.748 226.13 124.782L184.097 68.6349Z" fill="#F9BF18"/>
</g>
</svg>
